<svg xmlns="http://www.w3.org/2000/svg" width="1200" height="320" viewBox="0 0 1200 320" role="img" aria-labelledby="title desc">
  <title id="title">Jason TESTÉ — Full-stack developer</title>
  <desc id="desc">From unclear needs to simple, reliable applications.</desc>
  <defs>
    <linearGradient id="background" x1="0" y1="0" x2="1" y2="1">
      <stop offset="0" stop-color="#111827" />
      <stop offset="1" stop-color="#162b30" />
    </linearGradient>
    <linearGradient id="accent" x1="0" y1="0" x2="1" y2="0">
      <stop offset="0" stop-color="#bef264" />
      <stop offset="1" stop-color="#7dd3a7" />
    </linearGradient>
    <pattern id="grid" width="36" height="36" patternUnits="userSpaceOnUse">
      <path d="M36 0H0V36" fill="none" stroke="#d8e4df" stroke-opacity="0.055" />
    </pattern>
  </defs>

  <rect width="1200" height="320" rx="24" fill="url(#background)" />
  <rect width="1200" height="320" rx="24" fill="url(#grid)" />
  <path d="M0 0H12V320H0Z" fill="url(#accent)" />
  <circle cx="1140" cy="26" r="110" fill="#bef264" fill-opacity="0.045" />
  <circle cx="1140" cy="26" r="72" fill="none" stroke="#bef264" stroke-opacity="0.14" />

  <g font-family="Inter, ui-sans-serif, system-ui, -apple-system, BlinkMacSystemFont, 'Segoe UI', sans-serif">
    <text x="72" y="66" fill="#bef264" font-size="15" font-weight="700" letter-spacing="2.4">JASON TESTÉ  /  FULL-STACK DEVELOPER  /  MULHOUSE</text>
    <text x="72" y="139" fill="#f3f4f0" font-size="47" font-weight="750" letter-spacing="-1.3">From unclear needs</text>
    <text x="72" y="195" fill="#f3f4f0" font-size="47" font-weight="750" letter-spacing="-1.3">to simple, reliable apps.</text>
    <text x="72" y="252" fill="#b8c5c0" font-size="14" font-weight="600" letter-spacing="1.7">PRODUCT THINKING  ·  FULL-STACK BUILD  ·  PRODUCTION DELIVERY</text>

    <path d="M842 66V258" stroke="#d8e4df" stroke-opacity="0.16" />
    <g font-size="13" font-weight="700" letter-spacing="1.4">
      <rect x="886" y="72" width="238" height="48" rx="12" fill="#ffffff" fill-opacity="0.045" stroke="#d8e4df" stroke-opacity="0.12" />
      <circle cx="909" cy="96" r="5" fill="#bef264" />
      <text x="927" y="101" fill="#e8eee9">01  UNDERSTAND</text>

      <rect x="886" y="136" width="238" height="48" rx="12" fill="#ffffff" fill-opacity="0.045" stroke="#d8e4df" stroke-opacity="0.12" />
      <circle cx="909" cy="160" r="5" fill="#9be2b3" />
      <text x="927" y="165" fill="#e8eee9">02  BUILD</text>

      <rect x="886" y="200" width="238" height="48" rx="12" fill="#ffffff" fill-opacity="0.045" stroke="#d8e4df" stroke-opacity="0.12" />
      <circle cx="909" cy="224" r="5" fill="#79c8d0" />
      <text x="927" y="229" fill="#e8eee9">03  SHIP</text>
    </g>
  </g>
</svg>
